<?xml version="1.0" standalone="no"?>
<!DOCTYPE svg PUBLIC "-//W3C//DTD SVG 20010904//EN"
 "http://www.w3.org/TR/2001/REC-SVG-20010904/DTD/svg10.dtd">
<svg version="1.0" xmlns="http://www.w3.org/2000/svg"
 width="160.000000pt" height="87.000000pt" viewBox="0 0 160.000000 87.000000"
 preserveAspectRatio="xMidYMid meet">
<metadata>
Created by potrace 1.10, written by Peter Selinger 2001-2011
</metadata>
<g transform="translate(0.000000,87.000000) scale(0.100000,-0.100000)"
fill="#000000" stroke="none">
<path d="M440 819 l0 -49 40 0 c40 0 40 0 40 -40 0 -40 0 -40 -40 -40 l-40 0
0 -85 c0 -107 16 -150 64 -170 20 -8 49 -15 66 -15 28 0 30 3 30 35 0 28 -4
35 -20 35 -11 0 -29 9 -40 20 -17 17 -20 33 -20 100 l0 80 45 0 c36 0 45 3 45
18 0 9 3 27 6 40 6 21 3 22 -45 22 l-51 0 0 48 0 47 -40 1 -40 1 0 -48z"/>
<path d="M220 753 c-37 -14 -74 -49 -91 -87 -71 -157 80 -308 237 -237 53 24
59 34 39 65 l-17 25 -36 -19 c-49 -27 -84 -25 -121 6 -52 44 -51 132 3 169 27
20 86 19 115 -1 23 -16 25 -16 42 7 24 31 20 40 -22 61 -33 17 -116 23 -149
11z"/>
<path d="M681 746 c-26 -14 -50 -51 -51 -78 -1 -41 25 -70 92 -104 49 -25 68
-40 68 -54 0 -37 -72 -38 -113 -2 -9 8 -18 13 -20 11 -33 -45 -36 -57 -19 -71
32 -27 81 -41 129 -35 79 9 127 84 93 148 -6 10 -42 35 -81 55 -52 26 -69 39
-65 50 3 9 6 18 6 20 0 11 78 2 96 -10 19 -14 22 -13 37 20 l17 35 -35 14
c-43 18 -122 19 -154 1z"/>
<path d="M944 575 c9 -13 16 -32 16 -42 1 -10 7 0 15 22 18 49 18 55 1 32 -12
-15 -14 -16 -20 -2 -3 8 -11 15 -17 15 -7 0 -6 -9 5 -25z"/>
<path d="M1161 558 c1 -24 3 -35 6 -25 2 9 10 17 18 17 15 0 28 27 19 41 -3 5
-14 9 -25 9 -16 0 -19 -7 -18 -42z"/>
<path d="M1480 561 c0 -31 3 -39 17 -37 10 2 21 14 24 27 7 23 7 23 8 -3 1
-16 6 -28 12 -28 6 0 9 12 7 28 -2 22 -8 27 -29 27 -18 -1 -25 4 -22 12 3 7 0
13 -6 13 -6 0 -11 -17 -11 -39z"/>
<path d="M1294 577 c-7 -21 -2 -49 11 -54 11 -3 12 53 2 63 -4 4 -9 0 -13 -9z"/>
<path d="M991 561 c-14 -25 12 -50 33 -32 9 8 16 8 20 2 9 -14 66 -9 66 6 0 6
3 18 6 27 5 12 0 15 -20 14 -20 -2 -26 -8 -26 -26 0 -13 -4 -20 -10 -17 -5 3
-10 16 -10 28 0 16 -3 18 -9 8 -6 -9 -11 -10 -15 -2 -11 16 -24 13 -35 -8z"/>
<path d="M1224 572 c3 -6 2 -13 -4 -17 -18 -11 -11 -35 11 -35 16 0 20 5 17
27 -2 14 -9 29 -17 31 -8 3 -11 0 -7 -6z"/>
<path d="M1324 565 c-4 -8 -3 -23 2 -32 6 -15 8 -13 12 10 4 31 22 27 23 -6 0
-12 3 -16 6 -9 4 10 8 10 19 1 8 -7 17 -9 21 -5 3 3 1 6 -5 6 -7 0 -12 5 -12
10 0 16 22 12 36 -7 12 -16 13 -17 14 -1 0 9 3 23 6 31 7 19 -53 18 -65 -2 -7
-10 -9 -9 -14 3 -8 20 -36 21 -43 1z"/>
<path d="M941 486 c-9 -10 -8 -16 4 -26 20 -16 19 -28 -2 -33 -10 -2 -1 -4 20
-4 27 0 36 4 33 13 -3 7 -1 16 4 19 5 3 11 -5 13 -17 l4 -23 2 23 c1 26 21 30
21 4 0 -14 9 -19 41 -20 33 -2 40 0 37 14 -2 9 3 19 10 21 7 3 12 -4 12 -16 0
-33 15 -24 16 9 1 27 -1 29 -25 23 -14 -3 -28 -7 -30 -9 -2 -2 -10 1 -17 7 -8
7 -14 7 -19 -1 -3 -5 0 -10 7 -10 9 0 9 -3 -2 -10 -11 -7 -17 -4 -22 9 -7 20
-56 21 -68 1 -5 -8 -11 -6 -20 5 -10 12 -10 15 4 15 10 0 14 5 11 10 -9 14
-20 13 -34 -4z"/>
<path d="M1203 493 c-18 -6 -16 -32 2 -39 20 -8 19 -22 -2 -27 -10 -2 8 -4 40
-4 54 1 57 2 58 26 l1 26 7 -25 c4 -15 15 -26 28 -28 17 -3 20 1 16 17 -3 12
-1 21 6 21 6 0 11 -9 11 -20 0 -11 4 -20 8 -20 4 0 7 12 6 28 -1 25 -5 28 -34
24 -5 -1 -10 -11 -10 -22 0 -11 -4 -20 -10 -20 -5 0 -10 8 -10 18 0 10 -7 27
-15 38 -14 18 -14 18 -15 -5 0 -19 -3 -21 -14 -12 -11 9 -17 8 -28 -3 -10 -9
-20 -11 -29 -5 -12 8 -12 10 0 18 15 10 2 21 -16 14z"/>
<path d="M1423 464 c-5 -13 -7 -13 -14 -2 -6 9 -9 3 -9 -17 0 -23 3 -27 10
-15 6 10 10 11 10 3 0 -7 9 -13 20 -13 11 0 20 6 20 13 0 8 4 7 10 -3 8 -12
10 -11 10 8 0 12 4 22 9 22 5 0 12 -10 14 -22 4 -20 4 -20 6 4 1 33 -12 43
-32 23 -13 -13 -16 -13 -21 0 -7 20 -25 19 -33 -1z"/>
<path d="M1525 470 c-4 -6 -2 -17 5 -24 8 -11 8 -15 -2 -19 -8 -4 -7 -6 5 -6
19 -1 23 25 5 32 -10 4 -10 6 0 6 14 1 17 21 3 21 -6 0 -13 -5 -16 -10z"/>
<path d="M398 293 c221 -2 583 -2 805 0 221 1 40 2 -403 2 -443 0 -624 -1
-402 -2z"/>
</g>
</svg>
