<?xml version="1.0" standalone="no"?>
<!DOCTYPE svg PUBLIC "-//W3C//DTD SVG 20010904//EN"
 "http://www.w3.org/TR/2001/REC-SVG-20010904/DTD/svg10.dtd">
<svg version="1.0" xmlns="http://www.w3.org/2000/svg"
 width="160.000000pt" height="87.000000pt" viewBox="0 0 160.000000 87.000000"
 preserveAspectRatio="xMidYMid meet">
<metadata>
Created by potrace 1.10, written by Peter Selinger 2001-2011
</metadata>
<g transform="translate(0.000000,87.000000) scale(0.100000,-0.100000)"
fill="#000000" stroke="none">
<path d="M330 751 l0 -31 71 0 c68 0 73 -2 106 -35 24 -24 44 -35 64 -35 35 0
36 7 7 50 -42 61 -71 75 -164 79 l-84 3 0 -31z"/>
<path d="M633 702 l64 -78 -64 -77 -64 -77 44 0 c40 0 46 4 81 50 21 28 41 50
45 50 3 0 22 -23 41 -50 33 -46 38 -50 78 -50 l43 0 -47 60 c-26 33 -53 65
-60 71 -18 15 -18 33 0 48 7 6 34 38 60 71 l47 60 -40 0 c-37 0 -44 -5 -78
-49 -21 -28 -41 -50 -45 -50 -4 -1 -24 22 -45 49 -35 47 -40 50 -81 50 l-44 0
65 -78z m122 -71 c0 -41 -31 -50 -37 -10 -4 22 0 29 16 32 12 2 21 5 21 6 0 0
0 -12 0 -28z"/>
<path d="M958 760 c-35 -19 -68 -56 -81 -92 -5 -15 -1 -18 25 -18 23 0 39 8
58 32 26 31 32 33 104 36 l76 4 0 29 0 29 -72 0 c-52 -1 -83 -6 -110 -20z"/>
<path d="M503 564 c-30 -32 -35 -34 -102 -34 l-71 0 0 -31 0 -31 84 3 c93 4
122 18 164 79 29 44 28 50 -10 49 -23 -1 -42 -11 -65 -35z"/>
<path d="M870 591 c0 -15 45 -74 73 -95 22 -16 47 -22 113 -25 l84 -3 0 30 0
30 -76 4 c-72 3 -78 5 -104 36 -20 24 -35 32 -58 32 -18 0 -32 -4 -32 -9z"/>
<path d="M330 408 c0 -4 5 -8 10 -8 6 0 10 -13 10 -30 0 -16 5 -30 10 -30 6 0
10 14 10 30 0 17 5 30 10 30 6 0 10 4 10 8 0 5 -13 9 -30 9 -16 0 -30 -4 -30
-9z"/>
<path d="M428 413 c-13 -3 -18 -15 -18 -39 0 -31 3 -34 30 -34 35 0 41 19 8
21 -17 1 -19 2 -5 6 9 2 17 8 17 13 0 5 -8 11 -17 13 -13 3 -12 5 5 6 13 0 20
6 17 11 -6 10 -9 11 -37 3z"/>
<path d="M496 404 c-9 -8 -16 -21 -16 -28 0 -19 26 -38 45 -34 20 4 16 23 -5
23 -8 0 -15 7 -15 15 0 8 7 16 15 16 32 3 34 5 20 14 -20 13 -26 12 -44 -6z"/>
<path d="M570 383 c0 -24 5 -43 10 -43 6 0 10 7 10 15 0 8 5 15 10 15 6 0 10
-7 10 -15 0 -8 5 -15 10 -15 6 0 10 16 10 35 0 34 -14 47 -23 23 -3 -9 -10 -7
-21 7 -15 19 -15 18 -16 -22z"/>
<path d="M657 414 c-11 -11 -8 -74 3 -74 6 0 10 10 11 23 l0 22 16 -22 c8 -13
19 -23 24 -23 12 0 11 67 -1 75 -6 3 -10 -4 -10 -17 l0 -23 -18 23 c-10 13
-21 20 -25 16z"/>
<path d="M752 408 c-28 -28 -1 -75 38 -63 22 7 27 44 8 63 -15 15 -31 15 -46
0z m43 -28 c0 -8 -8 -16 -17 -18 -13 -2 -18 3 -18 18 0 15 5 20 18 18 9 -2 17
-10 17 -18z"/>
<path d="M836 408 c-15 -32 -3 -63 27 -66 15 -2 27 1 27 7 0 6 -9 11 -19 11
-15 0 -21 8 -23 33 -3 24 -6 28 -12 15z"/>
<path d="M912 408 c-23 -23 -7 -68 24 -68 14 0 44 27 44 40 0 13 -30 40 -44
40 -6 0 -17 -5 -24 -12z m43 -29 c0 -7 -8 -15 -17 -17 -18 -3 -25 18 -11 32
10 10 28 1 28 -15z"/>
<path d="M1006 404 c-9 -8 -16 -21 -16 -28 0 -19 26 -38 47 -34 23 4 30 38 8
38 -9 0 -13 -5 -9 -11 4 -7 1 -10 -7 -7 -19 6 -18 33 1 34 32 3 34 5 20 14
-20 13 -26 12 -44 -6z"/>
<path d="M1077 413 c-4 -6 0 -16 8 -23 8 -7 15 -21 15 -31 0 -26 17 -24 23 4
2 12 8 31 12 42 7 19 7 19 -10 3 -17 -16 -19 -16 -30 -1 -8 10 -14 12 -18 6z"/>
<path d="M398 293 c221 -2 583 -2 805 0 221 1 40 2 -403 2 -443 0 -624 -1
-402 -2z"/>
</g>
</svg>
