<?xml version="1.0" standalone="no"?>
<!DOCTYPE svg PUBLIC "-//W3C//DTD SVG 20010904//EN"
 "http://www.w3.org/TR/2001/REC-SVG-20010904/DTD/svg10.dtd">
<svg version="1.0" xmlns="http://www.w3.org/2000/svg"
 width="160.000000pt" height="87.000000pt" viewBox="0 0 160.000000 87.000000"
 preserveAspectRatio="xMidYMid meet">
<metadata>
Created by potrace 1.10, written by Peter Selinger 2001-2011
</metadata>
<g transform="translate(0.000000,87.000000) scale(0.100000,-0.100000)"
fill="#000000" stroke="none">
<path d="M494 679 c-7 -12 15 -31 28 -23 4 3 8 12 8 20 0 17 -26 19 -36 3z"/>
<path d="M702 665 c4 -17 1 -25 -8 -25 -8 0 -14 -7 -14 -15 0 -8 6 -15 13 -15
10 0 12 -15 9 -57 -4 -68 8 -90 56 -99 25 -5 32 -3 32 10 0 9 -8 16 -18 16
-30 0 -42 22 -42 76 0 50 2 53 27 56 39 5 42 28 3 28 -29 0 -32 2 -26 25 5 21
3 25 -15 25 -17 0 -20 -5 -17 -25z"/>
<path d="M320 633 c1 -5 15 -46 33 -93 20 -53 37 -85 47 -85 14 0 86 173 75
183 -14 14 -34 -14 -51 -72 -10 -36 -22 -66 -26 -66 -3 0 -10 15 -13 33 -13
56 -37 107 -51 107 -8 0 -14 -3 -14 -7z"/>
<path d="M500 545 c0 -78 3 -95 15 -95 12 0 15 17 15 95 0 78 -3 95 -15 95
-12 0 -15 -17 -15 -95z"/>
<path d="M550 543 c0 -75 3 -93 15 -93 11 0 15 18 17 78 l3 77 38 3 c24 2 37
8 37 17 0 11 -14 14 -55 13 l-55 -2 0 -93z"/>
<path d="M800 570 c0 -62 3 -74 25 -95 26 -27 46 -31 75 -15 13 7 21 7 25 0
17 -28 25 -1 25 85 0 78 -3 95 -15 95 -12 0 -15 -14 -15 -68 0 -72 -10 -92
-46 -92 -36 0 -47 24 -42 95 3 57 2 65 -14 65 -16 0 -18 -9 -18 -70z"/>
<path d="M986 627 c-12 -9 -17 -23 -14 -42 3 -26 10 -32 53 -47 36 -11 50 -21
50 -35 0 -25 -51 -30 -76 -7 -14 12 -23 14 -30 7 -15 -15 36 -53 70 -53 37 0
71 26 71 55 0 31 -25 55 -59 55 -32 0 -67 22 -58 37 13 21 47 21 73 1 20 -16
28 -18 37 -9 9 10 7 17 -12 32 -27 22 -79 25 -105 6z"/>
<path d="M1146 624 c-17 -17 -22 -44 -7 -44 5 0 14 7 21 15 17 20 66 19 74 -1
11 -28 6 -33 -28 -27 -49 8 -76 -10 -76 -52 0 -45 29 -64 92 -62 l48 2 0 76
c0 61 -4 79 -18 92 -23 21 -86 22 -106 1z m80 -88 c15 -12 17 -18 8 -33 -14
-22 -50 -29 -70 -13 -18 16 -18 25 2 44 19 20 35 20 60 2z"/>
<path d="M1292 623 c5 -26 38 -29 38 -4 0 15 -6 21 -21 21 -14 0 -19 -5 -17
-17z"/>
</g>
</svg>
