<?xml version="1.0" standalone="no"?>
<!DOCTYPE svg PUBLIC "-//W3C//DTD SVG 20010904//EN"
 "http://www.w3.org/TR/2001/REC-SVG-20010904/DTD/svg10.dtd">
<svg version="1.0" xmlns="http://www.w3.org/2000/svg"
 width="160.000000pt" height="87.000000pt" viewBox="0 0 160.000000 87.000000"
 preserveAspectRatio="xMidYMid meet">
<metadata>
Created by potrace 1.10, written by Peter Selinger 2001-2011
</metadata>
<g transform="translate(0.000000,87.000000) scale(0.100000,-0.100000)"
fill="#000000" stroke="none">
<path d="M517 864 c-14 -24 -87 -219 -87 -233 0 -11 6 -9 20 9 11 14 20 30 20
35 1 24 51 116 60 110 11 -7 12 26 1 65 -4 14 -10 20 -14 14z"/>
<path d="M553 846 c7 -8 65 -40 128 -71 63 -32 116 -61 117 -66 2 -5 8 -7 12
-4 23 14 -13 41 -128 96 -128 61 -154 70 -129 45z"/>
<path d="M209 802 l-147 -26 -10 -60 c-8 -50 -5 -88 14 -211 13 -82 24 -155
24 -160 0 -7 58 -1 157 15 l157 25 11 43 c5 24 13 41 16 38 2 -3 66 -34 141
-70 l136 -64 48 116 c26 65 56 132 66 151 11 18 17 35 15 37 -15 15 -281 133
-287 127 -8 -10 -65 -144 -95 -227 l-22 -59 -7 49 c-14 103 -38 260 -42 282
-2 12 -10 21 -17 21 -6 -1 -78 -13 -158 -27z m158 -49 c-3 -26 3 -101 14 -168
10 -66 19 -128 19 -137 0 -25 -35 -23 -60 2 -11 11 -29 21 -40 23 -31 5 -31
11 -5 63 26 50 32 107 15 134 -7 11 -4 17 8 23 24 10 -101 -1 -174 -16 -34 -7
-66 -11 -71 -10 -7 3 -3 19 8 43 22 44 19 44 175 70 60 10 111 19 113 19 2 1
1 -20 -2 -46z m318 -67 c69 -29 94 -119 55 -195 -28 -57 -64 -81 -118 -81 -38
0 -50 5 -83 39 -34 34 -39 44 -39 85 0 59 31 121 73 146 38 24 66 25 112 6z
m-397 -61 c2 -33 -5 -52 -44 -113 -25 -40 -44 -75 -42 -78 3 -2 27 0 53 6 57
13 75 8 75 -19 0 -13 -8 -22 -22 -25 -114 -25 -140 -27 -153 -16 -30 25 -6 99
54 174 46 57 42 65 -25 52 -45 -8 -57 -7 -64 5 -19 30 49 59 130 56 33 -2 35
-4 38 -42z m-164 -40 c10 -8 22 -12 27 -10 4 3 10 1 14 -4 8 -14 -47 -113 -58
-102 -12 12 -22 131 -11 131 5 0 18 -7 28 -15z"/>
<path d="M603 635 c-32 -22 -57 -94 -44 -127 22 -58 88 -61 121 -5 20 32 26
92 12 113 -8 12 -46 34 -59 34 -5 0 -18 -7 -30 -15z m65 -53 c2 -13 -2 -37 -9
-53 -9 -24 -17 -29 -38 -27 -20 2 -27 9 -29 31 -7 62 68 109 76 49z"/>
<path d="M973 767 c-79 -12 -143 -25 -143 -30 0 -5 19 -7 43 -4 102 13 250 38
259 43 10 6 0 -46 -12 -59 -5 -6 -245 -46 -283 -47 -4 0 -3 -9 3 -20 14 -27 9
-76 -7 -73 -18 4 -16 -36 12 -213 l5 -31 73 12 c39 7 112 18 160 25 89 12 89
12 82 39 -3 14 -12 71 -20 126 -8 55 -17 115 -20 133 -3 17 -2 32 3 32 5 0 16
-35 25 -77 l16 -78 -5 75 c-9 139 -15 170 -33 169 -9 -1 -80 -11 -158 -22z
m85 -99 c12 -17 46 -253 37 -267 -10 -16 -42 -13 -49 5 -3 9 -6 34 -6 56 l0
41 -47 -7 c-25 -3 -48 -8 -50 -9 -2 -2 1 -26 6 -53 8 -39 7 -52 -5 -64 -25
-26 -41 8 -58 123 -20 134 -20 156 0 164 23 9 34 -8 41 -66 l6 -52 46 7 c25 4
47 7 48 8 1 0 -3 23 -8 50 -11 61 11 98 39 64z m-81 -11 c14 -9 10 -60 -6 -65
-6 -2 -11 6 -11 17 0 12 -4 21 -10 21 -5 0 -10 9 -10 19 0 19 14 22 37 8z m30
-222 c-4 -8 -2 -17 4 -20 5 -4 7 -11 3 -16 -9 -14 -34 10 -34 32 0 11 7 19 16
19 10 0 14 -6 11 -15z"/>
<path d="M1208 732 c-23 -28 -23 -30 -15 -166 5 -82 13 -144 20 -152 30 -33
35 -42 30 -48 -13 -12 -24 -5 -34 22 -10 25 -12 26 -19 7 -5 -11 -9 -30 -9
-42 -1 -22 0 -22 162 -22 160 1 162 1 190 27 l27 26 0 188 0 188 -164 0 -164
0 -24 -28z m322 -3 c0 -3 -3 -9 -7 -13 -5 -4 -7 -77 -5 -163 2 -85 0 -162 -3
-171 -4 -15 -35 -20 -78 -13 -5 0 3 15 17 31 31 38 49 101 41 143 -29 136
-184 184 -266 84 -16 -19 -17 -19 -21 17 -2 20 0 40 4 42 5 3 6 9 3 14 -3 4 3
11 13 16 33 15 302 27 302 13z m-102 -113 c66 -66 51 -184 -29 -228 -92 -51
-204 38 -186 149 19 115 137 158 215 79z"/>
<path d="M1296 584 c-32 -32 -32 -118 0 -145 25 -20 75 -15 96 10 22 29 24 98
2 129 -18 26 -74 30 -98 6z m68 -20 c33 -13 12 -114 -24 -114 -20 0 -40 34
-40 70 0 45 22 60 64 44z"/>
<path d="M1174 482 c1 -45 3 -57 10 -42 5 12 5 36 -1 62 l-10 43 1 -63z"/>
<path d="M322 303 c59 -2 158 -2 220 0 62 1 14 3 -107 3 -121 0 -172 -2 -113
-3z"/>
<path d="M1028 303 c29 -2 74 -2 100 0 26 2 2 3 -53 3 -55 0 -76 -1 -47 -3z"/>
</g>
</svg>
